<svg width="45" height="45" viewBox="0 0 45 45" fill="none" xmlns="http://www.w3.org/2000/svg">
<path fill-rule="evenodd" clip-rule="evenodd" d="M10.1617 6.07249C11.6816 5.73473 13.4917 5.625 15.585 5.625H18.6181C20.4988 5.625 22.2551 6.56494 23.2984 8.12981L24.8218 10.4151C25.1696 10.9366 25.755 11.25 26.382 11.25H35.8609C38.8562 11.25 41.2839 13.6147 41.2554 16.6597C41.2213 20.286 41.25 23.9136 41.25 27.54C41.25 29.6332 41.1403 31.4434 40.8024 32.9633C40.4601 34.5045 39.8586 35.8596 38.7966 36.9216C37.7346 37.9836 36.3795 38.5851 34.8383 38.9274C33.3184 39.2653 31.5082 39.375 29.415 39.375H15.585C13.4917 39.375 11.6816 39.2653 10.1617 38.9274C8.62057 38.5851 7.2654 37.9836 6.2034 36.9216C5.14142 35.8596 4.53999 34.5045 4.19749 32.9633C3.85973 31.4434 3.75 29.6332 3.75 27.54V17.46C3.75 15.3667 3.85973 13.5566 4.19749 12.0367C4.53999 10.4956 5.14142 9.1404 6.2034 8.0784C7.2654 7.01642 8.62057 6.41499 10.1617 6.07249ZM24.375 20.625C24.375 19.5894 23.5356 18.75 22.5 18.75C21.4644 18.75 20.625 19.5894 20.625 20.625V26.4109L19.1383 24.9242C18.4061 24.192 17.2189 24.192 16.4867 24.9242C15.7544 25.6564 15.7544 26.8436 16.4867 27.5758L21.057 32.1461C21.0771 32.1662 21.0975 32.1859 21.1183 32.205C21.4611 32.5783 21.9531 32.8125 22.5 32.8125C23.0469 32.8125 23.5389 32.5783 23.8817 32.205C23.9025 32.1859 23.9229 32.1662 23.943 32.1461L28.5133 27.5758C29.2455 26.8436 29.2455 25.6564 28.5133 24.9242C27.7811 24.192 26.5939 24.192 25.8617 24.9242L24.375 26.4109V20.625Z" fill="#126A96"/>
</svg>
