<svg width="417" height="47" viewBox="0 0 417 47" fill="none" xmlns="http://www.w3.org/2000/svg">
<path d="M0 0H38V28C38 38.4934 29.4934 47 19 47C8.50659 47 0 38.4934 0 28V0Z" fill="#E7F7F0"/>
<path d="M38 0H76V28C76 38.4934 67.4934 47 57 47C46.5066 47 38 38.4934 38 28V0Z" fill="#E7F7F0"/>
<path d="M76 0H114V28C114 38.4934 105.493 47 95 47C84.5066 47 76 38.4934 76 28V0Z" fill="#E7F7F0"/>
<path d="M114 0H152V28C152 38.4934 143.493 47 133 47C122.507 47 114 38.4934 114 28V0Z" fill="#E7F7F0"/>
<path d="M152 0H190V28C190 38.4934 181.493 47 171 47C160.507 47 152 38.4934 152 28V0Z" fill="#E7F7F0"/>
<path d="M190 0H227V28.5C227 38.7173 218.717 47 208.5 47C198.283 47 190 38.7173 190 28.5V0Z" fill="#E7F7F0"/>
<path d="M227 0H265V28C265 38.4934 256.493 47 246 47C235.507 47 227 38.4934 227 28V0Z" fill="#E7F7F0"/>
<path d="M265 0H303V28C303 38.4934 294.493 47 284 47C273.507 47 265 38.4934 265 28V0Z" fill="#E7F7F0"/>
<path d="M303 0H341V28C341 38.4934 332.493 47 322 47C311.507 47 303 38.4934 303 28V0Z" fill="#E7F7F0"/>
<path d="M341 0H379V28C379 38.4934 370.493 47 360 47C349.507 47 341 38.4934 341 28V0Z" fill="#E7F7F0"/>
<path d="M379 0H417V28C417 38.4934 408.493 47 398 47C387.507 47 379 38.4934 379 28V0Z" fill="#E7F7F0"/>
</svg>
