<svg width="103" height="91" viewBox="0 0 103 91" fill="none" xmlns="http://www.w3.org/2000/svg">
<path d="M28 0H96C99.866 0 103 3.13401 103 7V13H28V0Z" fill="#044362"/>
<path d="M0 12C0 5.37258 5.37258 0 12 0H89V79C89 85.6274 83.6274 91 77 91H12C5.37259 91 0 85.6274 0 79V12Z" fill="#126A96"/>
<path d="M44.408 66.8958C41.3467 66.8958 38.528 66.3545 35.952 65.2718C33.376 64.1518 31.136 62.6025 29.232 60.6238C27.328 58.6078 25.8533 56.2558 24.808 53.5678C23.7627 50.8425 23.24 47.8931 23.24 44.7198C23.24 41.5091 23.7627 38.5598 24.808 35.8718C25.8533 33.1465 27.328 30.7945 29.232 28.8158C31.136 26.7998 33.376 25.2505 35.952 24.1678C38.528 23.0478 41.3467 22.4878 44.408 22.4878C47.4693 22.4878 50.288 23.0478 52.864 24.1678C55.44 25.2505 57.68 26.7998 59.584 28.8158C61.488 30.7945 62.9627 33.1465 64.008 35.8718C65.0533 38.5598 65.576 41.5091 65.576 44.7198C65.576 47.5198 65.1653 50.1331 64.344 52.5598C63.5227 54.9865 62.384 57.1518 60.928 59.0558C62.6453 61.1091 64.008 63.3865 65.016 65.8878C64.0827 66.3731 62.9813 66.8585 61.712 67.3438C60.4427 67.8291 59.1547 68.2771 57.848 68.6878C56.5413 69.1358 55.328 69.4718 54.208 69.6958C53.7227 68.0531 53.2373 66.5785 52.752 65.2718C50.1387 66.3545 47.3573 66.8958 44.408 66.8958ZM33.712 42.7038C33.712 45.3545 33.992 47.8371 34.552 50.1518C35.1493 52.4291 35.952 54.4265 36.96 56.1438C39.7973 53.1571 43.1013 51.6638 46.872 51.6638C49.336 51.6638 51.8 52.3171 54.264 53.6238C54.824 51.5705 55.104 49.2745 55.104 46.7358C55.104 43.0771 54.5813 39.7918 53.536 36.8798C52.4907 33.9678 51.0533 31.6531 49.224 29.9358C47.432 28.2185 45.416 27.3598 43.176 27.3598C41.272 27.3598 39.6107 27.9945 38.192 29.2638C36.7733 30.5331 35.672 32.3251 34.888 34.6398C34.104 36.9171 33.712 39.6051 33.712 42.7038ZM45.64 62.0798C47.3947 62.0798 48.9627 61.5198 50.344 60.3998C48.888 58.1971 47.208 57.0958 45.304 57.0958C43.3627 57.0958 41.7387 58.1225 40.432 60.1758C42.0373 61.4451 43.7733 62.0798 45.64 62.0798Z" fill="white"/>
<path fill-rule="evenodd" clip-rule="evenodd" d="M96 0H89V7C89 3.13403 92.134 0 96 0Z" fill="#126A96"/>
</svg>
