<svg width="43" height="48" viewBox="0 0 43 48" fill="none" xmlns="http://www.w3.org/2000/svg">
<path d="M21.408 44.8958C18.3467 44.8958 15.528 44.3545 12.952 43.2718C10.376 42.1518 8.13599 40.6025 6.23199 38.6238C4.32799 36.6078 2.85332 34.2558 1.80799 31.5678C0.762657 28.8425 0.23999 25.8931 0.23999 22.7198C0.23999 19.5091 0.762657 16.5598 1.80799 13.8718C2.85332 11.1465 4.32799 8.79446 6.23199 6.81579C8.13599 4.79979 10.376 3.25046 12.952 2.16779C15.528 1.04779 18.3467 0.487793 21.408 0.487793C24.4693 0.487793 27.288 1.04779 29.864 2.16779C32.44 3.25046 34.68 4.79979 36.584 6.81579C38.488 8.79446 39.9627 11.1465 41.008 13.8718C42.0533 16.5598 42.576 19.5091 42.576 22.7198C42.576 25.5198 42.1653 28.1331 41.344 30.5598C40.5227 32.9865 39.384 35.1518 37.928 37.0558C39.6453 39.1091 41.008 41.3865 42.016 43.8878C41.0827 44.3731 39.9813 44.8585 38.712 45.3438C37.4427 45.8291 36.1547 46.2771 34.848 46.6878C33.5413 47.1358 32.328 47.4718 31.208 47.6958C30.7227 46.0531 30.2373 44.5785 29.752 43.2718C27.1387 44.3545 24.3573 44.8958 21.408 44.8958ZM10.712 20.7038C10.712 23.3545 10.992 25.8371 11.552 28.1518C12.1493 30.4291 12.952 32.4265 13.96 34.1438C16.7973 31.1571 20.1013 29.6638 23.872 29.6638C26.336 29.6638 28.8 30.3171 31.264 31.6238C31.824 29.5705 32.104 27.2745 32.104 24.7358C32.104 21.0771 31.5813 17.7918 30.536 14.8798C29.4907 11.9678 28.0533 9.65312 26.224 7.93579C24.432 6.21846 22.416 5.35979 20.176 5.35979C18.272 5.35979 16.6107 5.99446 15.192 7.26379C13.7733 8.53313 12.672 10.3251 11.888 12.6398C11.104 14.9171 10.712 17.6051 10.712 20.7038ZM22.64 40.0798C24.3947 40.0798 25.9627 39.5198 27.344 38.3998C25.888 36.1971 24.208 35.0958 22.304 35.0958C20.3627 35.0958 18.7387 36.1225 17.432 38.1758C19.0373 39.4451 20.7733 40.0798 22.64 40.0798Z" fill="white"/>
</svg>
